<mxfile host="app.diagrams.net" modified="2023-09-26T20:40:57.729Z" agent="Mozilla/5.0 (Windows NT 10.0; Win64; x64) AppleWebKit/537.36 (KHTML, like Gecko) Chrome/117.0.0.0 Safari/537.36" etag="iV1rbAW4SAgR1A_fhRqI" version="21.8.2" type="device">
  <diagram name="Page-1" id="LdJZxewxQv_uf2fhCd18">
    <mxGraphModel dx="1687" dy="882" grid="1" gridSize="10" guides="1" tooltips="1" connect="1" arrows="1" fold="1" page="1" pageScale="1" pageWidth="850" pageHeight="1100" background="none" math="0" shadow="0">
      <root>
        <mxCell id="0" />
        <mxCell id="1" parent="0" />
        <mxCell id="k-V0Ehb8IZConhcvQaMW-3" style="edgeStyle=orthogonalEdgeStyle;rounded=0;orthogonalLoop=1;jettySize=auto;html=1;entryX=0.5;entryY=0;entryDx=0;entryDy=0;" edge="1" parent="1" source="k-V0Ehb8IZConhcvQaMW-1" target="k-V0Ehb8IZConhcvQaMW-2">
          <mxGeometry relative="1" as="geometry" />
        </mxCell>
        <mxCell id="k-V0Ehb8IZConhcvQaMW-1" value="Start" style="rounded=1;whiteSpace=wrap;html=1;" vertex="1" parent="1">
          <mxGeometry x="120" y="80" width="120" height="60" as="geometry" />
        </mxCell>
        <mxCell id="k-V0Ehb8IZConhcvQaMW-5" value="" style="edgeStyle=orthogonalEdgeStyle;rounded=0;orthogonalLoop=1;jettySize=auto;html=1;" edge="1" parent="1" source="k-V0Ehb8IZConhcvQaMW-2" target="k-V0Ehb8IZConhcvQaMW-4">
          <mxGeometry relative="1" as="geometry" />
        </mxCell>
        <mxCell id="k-V0Ehb8IZConhcvQaMW-2" value="int num1&lt;br&gt;int num2&lt;br&gt;int num3&lt;br&gt;int sum" style="shape=parallelogram;perimeter=parallelogramPerimeter;whiteSpace=wrap;html=1;fixedSize=1;" vertex="1" parent="1">
          <mxGeometry x="120" y="210" width="120" height="60" as="geometry" />
        </mxCell>
        <mxCell id="k-V0Ehb8IZConhcvQaMW-12" value="" style="edgeStyle=orthogonalEdgeStyle;rounded=0;orthogonalLoop=1;jettySize=auto;html=1;" edge="1" parent="1" source="k-V0Ehb8IZConhcvQaMW-4" target="k-V0Ehb8IZConhcvQaMW-11">
          <mxGeometry relative="1" as="geometry" />
        </mxCell>
        <mxCell id="k-V0Ehb8IZConhcvQaMW-13" value="True" style="edgeLabel;html=1;align=center;verticalAlign=middle;resizable=0;points=[];" vertex="1" connectable="0" parent="k-V0Ehb8IZConhcvQaMW-12">
          <mxGeometry x="-0.125" y="1" relative="1" as="geometry">
            <mxPoint as="offset" />
          </mxGeometry>
        </mxCell>
        <mxCell id="k-V0Ehb8IZConhcvQaMW-41" value="" style="edgeStyle=orthogonalEdgeStyle;rounded=0;orthogonalLoop=1;jettySize=auto;html=1;" edge="1" parent="1" source="k-V0Ehb8IZConhcvQaMW-4" target="k-V0Ehb8IZConhcvQaMW-40">
          <mxGeometry relative="1" as="geometry" />
        </mxCell>
        <mxCell id="k-V0Ehb8IZConhcvQaMW-50" value="False" style="edgeLabel;html=1;align=center;verticalAlign=middle;resizable=0;points=[];" vertex="1" connectable="0" parent="k-V0Ehb8IZConhcvQaMW-41">
          <mxGeometry x="-0.3" y="-2" relative="1" as="geometry">
            <mxPoint as="offset" />
          </mxGeometry>
        </mxCell>
        <mxCell id="k-V0Ehb8IZConhcvQaMW-4" value="num1 &amp;gt; 0 &amp;amp;&amp;amp;&lt;br&gt;num2 &amp;gt; 0 &amp;amp;&amp;amp;&lt;br&gt;num3 &amp;gt; 0" style="rhombus;whiteSpace=wrap;html=1;" vertex="1" parent="1">
          <mxGeometry x="120" y="320" width="120" height="120" as="geometry" />
        </mxCell>
        <mxCell id="k-V0Ehb8IZConhcvQaMW-17" value="" style="edgeStyle=orthogonalEdgeStyle;rounded=0;orthogonalLoop=1;jettySize=auto;html=1;" edge="1" parent="1" source="k-V0Ehb8IZConhcvQaMW-11" target="k-V0Ehb8IZConhcvQaMW-16">
          <mxGeometry relative="1" as="geometry" />
        </mxCell>
        <mxCell id="k-V0Ehb8IZConhcvQaMW-18" value="False" style="edgeLabel;html=1;align=center;verticalAlign=middle;resizable=0;points=[];" vertex="1" connectable="0" parent="k-V0Ehb8IZConhcvQaMW-17">
          <mxGeometry x="0.025" y="3" relative="1" as="geometry">
            <mxPoint as="offset" />
          </mxGeometry>
        </mxCell>
        <mxCell id="k-V0Ehb8IZConhcvQaMW-20" value="" style="edgeStyle=orthogonalEdgeStyle;rounded=0;orthogonalLoop=1;jettySize=auto;html=1;" edge="1" parent="1" source="k-V0Ehb8IZConhcvQaMW-11" target="k-V0Ehb8IZConhcvQaMW-19">
          <mxGeometry relative="1" as="geometry" />
        </mxCell>
        <mxCell id="k-V0Ehb8IZConhcvQaMW-21" value="True" style="edgeLabel;html=1;align=center;verticalAlign=middle;resizable=0;points=[];" vertex="1" connectable="0" parent="k-V0Ehb8IZConhcvQaMW-20">
          <mxGeometry x="0.225" y="-1" relative="1" as="geometry">
            <mxPoint as="offset" />
          </mxGeometry>
        </mxCell>
        <mxCell id="k-V0Ehb8IZConhcvQaMW-11" value="num1 % 5 == 0" style="rhombus;whiteSpace=wrap;html=1;" vertex="1" parent="1">
          <mxGeometry x="340" y="320" width="120" height="120" as="geometry" />
        </mxCell>
        <mxCell id="k-V0Ehb8IZConhcvQaMW-32" value="" style="edgeStyle=orthogonalEdgeStyle;rounded=0;orthogonalLoop=1;jettySize=auto;html=1;" edge="1" parent="1" source="k-V0Ehb8IZConhcvQaMW-16" target="k-V0Ehb8IZConhcvQaMW-31">
          <mxGeometry relative="1" as="geometry" />
        </mxCell>
        <mxCell id="k-V0Ehb8IZConhcvQaMW-33" value="True" style="edgeLabel;html=1;align=center;verticalAlign=middle;resizable=0;points=[];" vertex="1" connectable="0" parent="k-V0Ehb8IZConhcvQaMW-32">
          <mxGeometry x="-0.275" y="1" relative="1" as="geometry">
            <mxPoint as="offset" />
          </mxGeometry>
        </mxCell>
        <mxCell id="k-V0Ehb8IZConhcvQaMW-35" value="" style="edgeStyle=orthogonalEdgeStyle;rounded=0;orthogonalLoop=1;jettySize=auto;html=1;" edge="1" parent="1" source="k-V0Ehb8IZConhcvQaMW-16" target="k-V0Ehb8IZConhcvQaMW-34">
          <mxGeometry relative="1" as="geometry" />
        </mxCell>
        <mxCell id="k-V0Ehb8IZConhcvQaMW-36" value="False" style="edgeLabel;html=1;align=center;verticalAlign=middle;resizable=0;points=[];" vertex="1" connectable="0" parent="k-V0Ehb8IZConhcvQaMW-35">
          <mxGeometry x="0.325" y="2" relative="1" as="geometry">
            <mxPoint as="offset" />
          </mxGeometry>
        </mxCell>
        <mxCell id="k-V0Ehb8IZConhcvQaMW-16" value="num2 % 5 == 0" style="rhombus;whiteSpace=wrap;html=1;" vertex="1" parent="1">
          <mxGeometry x="340" y="520" width="120" height="120" as="geometry" />
        </mxCell>
        <mxCell id="k-V0Ehb8IZConhcvQaMW-22" style="edgeStyle=orthogonalEdgeStyle;rounded=0;orthogonalLoop=1;jettySize=auto;html=1;entryX=1;entryY=0;entryDx=0;entryDy=0;" edge="1" parent="1" source="k-V0Ehb8IZConhcvQaMW-19" target="k-V0Ehb8IZConhcvQaMW-16">
          <mxGeometry relative="1" as="geometry">
            <Array as="points">
              <mxPoint x="600" y="500" />
              <mxPoint x="430" y="500" />
            </Array>
          </mxGeometry>
        </mxCell>
        <mxCell id="k-V0Ehb8IZConhcvQaMW-19" value="sum += num1" style="whiteSpace=wrap;html=1;" vertex="1" parent="1">
          <mxGeometry x="540" y="350" width="120" height="60" as="geometry" />
        </mxCell>
        <mxCell id="k-V0Ehb8IZConhcvQaMW-37" style="edgeStyle=orthogonalEdgeStyle;rounded=0;orthogonalLoop=1;jettySize=auto;html=1;entryX=1;entryY=0;entryDx=0;entryDy=0;" edge="1" parent="1" source="k-V0Ehb8IZConhcvQaMW-31" target="k-V0Ehb8IZConhcvQaMW-34">
          <mxGeometry relative="1" as="geometry">
            <Array as="points">
              <mxPoint x="600" y="670" />
              <mxPoint x="430" y="670" />
            </Array>
          </mxGeometry>
        </mxCell>
        <mxCell id="k-V0Ehb8IZConhcvQaMW-31" value="sum += num2" style="whiteSpace=wrap;html=1;" vertex="1" parent="1">
          <mxGeometry x="540" y="550" width="120" height="60" as="geometry" />
        </mxCell>
        <mxCell id="k-V0Ehb8IZConhcvQaMW-39" value="" style="edgeStyle=orthogonalEdgeStyle;rounded=0;orthogonalLoop=1;jettySize=auto;html=1;" edge="1" parent="1" source="k-V0Ehb8IZConhcvQaMW-34" target="k-V0Ehb8IZConhcvQaMW-38">
          <mxGeometry relative="1" as="geometry" />
        </mxCell>
        <mxCell id="k-V0Ehb8IZConhcvQaMW-48" value="False" style="edgeLabel;html=1;align=center;verticalAlign=middle;resizable=0;points=[];" vertex="1" connectable="0" parent="k-V0Ehb8IZConhcvQaMW-39">
          <mxGeometry x="0.16" y="1" relative="1" as="geometry">
            <mxPoint as="offset" />
          </mxGeometry>
        </mxCell>
        <mxCell id="k-V0Ehb8IZConhcvQaMW-46" value="" style="edgeStyle=orthogonalEdgeStyle;rounded=0;orthogonalLoop=1;jettySize=auto;html=1;" edge="1" parent="1" source="k-V0Ehb8IZConhcvQaMW-34" target="k-V0Ehb8IZConhcvQaMW-45">
          <mxGeometry relative="1" as="geometry" />
        </mxCell>
        <mxCell id="k-V0Ehb8IZConhcvQaMW-47" value="True" style="edgeLabel;html=1;align=center;verticalAlign=middle;resizable=0;points=[];" vertex="1" connectable="0" parent="k-V0Ehb8IZConhcvQaMW-46">
          <mxGeometry x="-0.45" y="5" relative="1" as="geometry">
            <mxPoint as="offset" />
          </mxGeometry>
        </mxCell>
        <mxCell id="k-V0Ehb8IZConhcvQaMW-34" value="num3 % 5 == 0" style="rhombus;whiteSpace=wrap;html=1;" vertex="1" parent="1">
          <mxGeometry x="340" y="720" width="120" height="120" as="geometry" />
        </mxCell>
        <mxCell id="k-V0Ehb8IZConhcvQaMW-43" style="edgeStyle=orthogonalEdgeStyle;rounded=0;orthogonalLoop=1;jettySize=auto;html=1;entryX=1;entryY=0.5;entryDx=0;entryDy=0;" edge="1" parent="1" source="k-V0Ehb8IZConhcvQaMW-38" target="k-V0Ehb8IZConhcvQaMW-42">
          <mxGeometry relative="1" as="geometry" />
        </mxCell>
        <mxCell id="k-V0Ehb8IZConhcvQaMW-38" value="Sum" style="shape=document;whiteSpace=wrap;html=1;boundedLbl=1;" vertex="1" parent="1">
          <mxGeometry x="340" y="940" width="120" height="80" as="geometry" />
        </mxCell>
        <mxCell id="k-V0Ehb8IZConhcvQaMW-44" style="edgeStyle=orthogonalEdgeStyle;rounded=0;orthogonalLoop=1;jettySize=auto;html=1;entryX=0.5;entryY=0;entryDx=0;entryDy=0;" edge="1" parent="1" source="k-V0Ehb8IZConhcvQaMW-40" target="k-V0Ehb8IZConhcvQaMW-42">
          <mxGeometry relative="1" as="geometry" />
        </mxCell>
        <mxCell id="k-V0Ehb8IZConhcvQaMW-40" value="One or More Number is Negative" style="shape=document;whiteSpace=wrap;html=1;boundedLbl=1;" vertex="1" parent="1">
          <mxGeometry x="120" y="540" width="120" height="80" as="geometry" />
        </mxCell>
        <mxCell id="k-V0Ehb8IZConhcvQaMW-42" value="END" style="ellipse;whiteSpace=wrap;html=1;" vertex="1" parent="1">
          <mxGeometry x="120" y="860" width="120" height="80" as="geometry" />
        </mxCell>
        <mxCell id="k-V0Ehb8IZConhcvQaMW-49" style="edgeStyle=orthogonalEdgeStyle;rounded=0;orthogonalLoop=1;jettySize=auto;html=1;entryX=1;entryY=0.5;entryDx=0;entryDy=0;" edge="1" parent="1" source="k-V0Ehb8IZConhcvQaMW-45" target="k-V0Ehb8IZConhcvQaMW-38">
          <mxGeometry relative="1" as="geometry">
            <Array as="points">
              <mxPoint x="600" y="980" />
            </Array>
          </mxGeometry>
        </mxCell>
        <mxCell id="k-V0Ehb8IZConhcvQaMW-45" value="sum += num3" style="whiteSpace=wrap;html=1;" vertex="1" parent="1">
          <mxGeometry x="540" y="750" width="120" height="60" as="geometry" />
        </mxCell>
      </root>
    </mxGraphModel>
  </diagram>
</mxfile>
